<?xml version="1.0" standalone="no"?>
<!DOCTYPE svg PUBLIC "-//W3C//DTD SVG 20010904//EN"
 "http://www.w3.org/TR/2001/REC-SVG-20010904/DTD/svg10.dtd">
<svg version="1.0" xmlns="http://www.w3.org/2000/svg"
 width="700.000000pt" height="700.000000pt" viewBox="0 0 700.000000 700.000000"
 preserveAspectRatio="xMidYMid meet">
<metadata>
Created by potrace 1.14, written by Peter Selinger 2001-2017
</metadata>
<g transform="translate(0.000000,700.000000) scale(0.100000,-0.100000)"
fill="#000000" stroke="none">
<path d="M4834 6990 c-155 -28 -310 -105 -353 -174 -12 -20 -21 -50 -21 -74 0
-37 11 -56 100 -174 55 -73 100 -141 100 -150 0 -27 11 -23 82 30 137 101 264
132 398 98 131 -33 209 -109 218 -209 4 -49 1 -57 -26 -88 -18 -20 -74 -58
-134 -88 -57 -30 -127 -71 -155 -93 -60 -44 -109 -121 -119 -184 -7 -47 17
-142 45 -184 10 -14 20 -32 24 -41 8 -23 81 -39 211 -46 133 -7 138 -4 144 95
3 37 11 77 20 89 8 13 76 68 151 122 144 105 262 218 285 273 72 174 -49 471
-262 639 -146 117 -279 160 -507 165 -82 1 -173 -1 -201 -6z"/>
<path d="M2375 6536 c-42 -19 -90 -73 -114 -127 -29 -65 -46 -189 -32 -230 14
-41 5 -76 -22 -85 -12 -4 -69 -8 -127 -9 -112 -2 -374 -51 -429 -80 -55 -28
-77 -87 -51 -136 13 -23 125 -100 231 -158 64 -35 76 -45 72 -62 -4 -13 7 -39
31 -74 35 -51 109 -207 135 -288 20 -61 35 -45 28 31 -6 78 -33 153 -81 226
-19 28 -37 62 -41 75 -6 21 -5 23 11 17 34 -13 368 -133 450 -162 l81 -28 -73
-69 c-59 -55 -83 -86 -115 -152 -38 -77 -41 -90 -48 -197 -8 -129 -12 -137
-101 -223 -50 -47 -52 -48 -46 -22 18 74 3 389 -19 411 -7 7 -15 21 -18 32 -2
10 -5 -22 -6 -73 -1 -95 -8 -134 -21 -113 -4 6 -30 -20 -65 -65 -31 -41 -131
-146 -222 -232 -178 -170 -238 -248 -291 -376 -60 -144 -83 -248 -89 -408 -8
-208 18 -325 98 -451 59 -91 168 -112 291 -56 l53 24 2 -72 c1 -53 13 -105 44
-200 67 -210 162 -390 271 -516 27 -32 47 -62 44 -67 -3 -4 -18 -11 -34 -14
-51 -10 -187 -120 -227 -183 -21 -32 -59 -87 -87 -123 -46 -62 -162 -285 -187
-361 -15 -47 -30 -175 -24 -200 3 -11 12 -20 20 -20 10 0 13 -6 9 -16 -3 -9
-6 -29 -6 -45 0 -20 -4 -28 -11 -23 -16 10 -29 -16 -29 -60 0 -65 60 -336 85
-386 13 -26 76 -134 141 -241 126 -211 144 -249 144 -315 0 -36 -6 -51 -36
-83 -19 -22 -51 -45 -71 -52 -39 -13 -153 -9 -308 11 -99 12 -201 6 -254 -16
-26 -11 -32 -17 -23 -26 8 -8 8 -17 1 -30 -14 -27 -7 -33 58 -48 32 -7 54 -14
48 -15 -5 -2 -54 -13 -107 -25 -98 -23 -136 -47 -55 -36 l42 6 -49 -19 c-119
-48 -115 -109 7 -112 23 -1 34 -3 24 -6 -32 -8 -17 -24 18 -18 19 3 52 8 73
11 l37 5 -47 -30 c-61 -39 -74 -62 -48 -86 29 -26 104 -29 202 -7 68 14 85 16
76 5 -19 -24 0 -27 85 -14 45 7 165 16 267 21 194 8 231 15 316 65 58 34 133
121 171 197 76 154 89 248 77 538 -11 258 -4 376 31 494 65 224 187 391 424
580 97 77 147 98 286 122 l40 7 -24 -27 c-14 -14 -21 -29 -17 -33 4 -4 52 1
108 10 142 25 306 32 413 18 120 -15 360 -84 464 -132 70 -33 98 -54 165 -122
91 -92 139 -173 179 -302 39 -125 51 -220 44 -358 -6 -116 -15 -164 -82 -457
-24 -100 -26 -130 -23 -235 4 -92 10 -133 27 -178 45 -115 119 -181 236 -212
51 -13 103 -15 340 -9 268 6 283 6 342 -15 67 -23 93 -26 93 -12 0 4 11 6 25
3 37 -7 33 26 -10 82 l-34 46 51 -21 c28 -11 59 -24 69 -29 32 -18 33 -11 4
20 l-29 30 50 -15 c109 -33 131 -12 69 69 -19 25 -31 46 -27 46 5 0 34 -16 67
-35 32 -20 60 -33 62 -31 9 9 -89 94 -130 112 l-42 19 68 6 c37 3 70 9 74 12
4 4 -11 26 -33 50 -23 24 -26 31 -8 14 34 -30 44 -33 44 -13 0 16 -60 72 -87
80 -105 31 -245 48 -213 25 11 -8 -1 -9 -45 -4 -248 26 -293 39 -336 98 -30
40 -31 45 -25 117 5 76 18 117 130 430 31 85 56 168 56 183 0 16 5 37 11 49 6
11 17 108 25 216 17 213 11 284 -37 523 -54 269 -213 596 -391 801 -35 40 -79
92 -97 115 l-33 42 36 93 c79 200 115 409 116 653 0 237 -42 533 -102 715 -18
55 -32 76 -94 138 -72 72 -73 75 -113 195 -24 71 -41 141 -41 167 0 72 -26
155 -91 289 -133 276 -290 454 -528 596 -35 21 -71 38 -80 39 -9 1 -35 14 -58
30 -42 28 -43 30 -43 86 0 83 -23 150 -72 205 -99 112 -224 113 -327 1 -46
-51 -101 -159 -101 -201 0 -35 -26 -33 -114 10 -39 19 -111 45 -161 56 -49 11
-115 26 -145 34 -39 10 -60 11 -74 3 -25 -14 -41 6 -56 75 -37 163 -95 258
-185 298 -47 22 -127 24 -170 5z m540 -1247 c162 -55 367 -146 536 -237 l107
-57 -57 -46 c-71 -56 -120 -147 -128 -235 -12 -131 45 -340 152 -563 l65 -133
-31 -91 c-24 -71 -33 -115 -37 -194 -3 -57 -7 -103 -10 -103 -2 0 -23 16 -45
37 -45 40 -351 192 -488 242 -47 17 -155 47 -239 66 -181 42 -253 75 -299 141
-18 24 -33 56 -34 71 -2 25 2 29 38 36 113 25 179 72 192 139 3 18 14 33 28
38 57 22 93 111 74 185 -9 35 -9 52 1 75 16 38 16 96 1 141 -15 46 -78 107
-127 124 -39 13 -39 13 -42 71 -4 80 23 246 52 313 13 31 27 64 30 73 4 15 11
13 58 -12 29 -16 121 -52 203 -81z m-579 -1646 c43 -34 140 -112 214 -173 173
-143 490 -356 638 -428 87 -42 128 -57 171 -60 67 -5 172 13 186 31 6 8 59 31
120 51 151 52 244 108 364 220 l43 41 -5 -170 c-10 -316 -86 -539 -214 -627
-74 -50 -222 -115 -328 -144 -134 -35 -378 -45 -504 -20 -219 44 -360 124
-537 300 -253 254 -447 602 -478 859 l-6 48 97 97 96 97 32 -30 c17 -16 67
-58 111 -92z"/>
<path d="M5043 5531 c-77 -20 -113 -70 -113 -159 0 -61 34 -129 79 -159 46
-31 163 -33 220 -3 96 49 117 157 49 253 -39 55 -155 88 -235 68z"/>
</g>
</svg>
